<svg width="25" height="25" viewBox="0 0 25 25" fill="none" xmlns="http://www.w3.org/2000/svg">
<path d="M8.92005 14.4195C7.88005 14.4195 7.03205 13.4745 7.03205 12.3185C7.03205 11.1625 7.85905 10.2165 8.92105 10.2165C9.97105 10.2165 10.831 11.1615 10.81 12.3185C10.81 13.4745 9.97105 14.4195 8.92005 14.4195ZM15.894 14.4185C14.854 14.4185 14.004 13.4735 14.004 12.3175C14.004 11.1615 14.833 10.2155 15.894 10.2155C16.944 10.2155 17.804 11.1605 17.784 12.3175C17.784 13.4735 16.955 14.4185 15.894 14.4185ZM10.525 4.89454L10.217 4.33154L9.58305 4.43754C8.14635 4.67766 6.74805 5.10812 5.42505 5.71754L5.19705 5.82254L5.05505 6.03254C2.44205 9.88554 1.72505 13.6805 2.08005 17.4075L2.11905 17.8145L2.44905 18.0545C3.98615 19.1826 5.70305 20.0424 7.52705 20.5975L8.31705 20.8395L9.43005 18.1235C11.34 18.5955 13.46 18.5955 15.369 18.1235L16.476 20.8405L17.266 20.5985C19.0916 20.0448 20.8095 19.1841 22.346 18.0535L22.673 17.8155L22.713 17.4135C23.149 13.0935 22.016 9.33054 19.755 6.02954L19.613 5.82154L19.385 5.71754C18.0625 5.11065 16.6658 4.68029 15.231 4.43754L14.613 4.33454L14.299 4.87654C14.211 5.02654 14.122 5.19654 14.036 5.36954C12.9512 5.25835 11.8579 5.25835 10.773 5.36954C10.688 5.19954 10.603 5.03554 10.525 4.89454ZM7.11505 17.1835C7.31205 17.2975 7.52005 17.4095 7.72505 17.5115L7.27605 18.6075C6.06155 18.1651 4.90933 17.5674 3.84805 16.8295C3.62305 13.6915 4.26105 10.5245 6.41205 7.25954C7.31992 6.86007 8.26615 6.55416 9.23605 6.34654C9.29605 6.47154 9.35205 6.59454 9.39805 6.70254L9.67105 7.34554L10.363 7.24454C11.7191 7.04576 13.097 7.04576 14.453 7.24454L15.143 7.34454L15.415 6.70254C15.462 6.59054 15.517 6.46854 15.575 6.34654C16.552 6.55654 17.498 6.86654 18.403 7.26154C20.278 10.0815 21.224 13.2275 20.949 16.8285C19.8872 17.5669 18.7343 18.1649 17.519 18.6075L17.074 17.5125C17.28 17.4105 17.488 17.2985 17.687 17.1835C18.177 16.9015 18.704 16.5495 19.04 16.2135L17.76 14.9335C17.597 15.0975 17.237 15.3535 16.783 15.6155C16.339 15.8715 15.898 16.0785 15.616 16.1715C13.613 16.8345 11.188 16.8345 9.18405 16.1715C8.90305 16.0785 8.46205 15.8715 8.01805 15.6155C7.56405 15.3545 7.20405 15.0975 7.04005 14.9335L5.76005 16.2135C6.09705 16.5495 6.62505 16.9015 7.11505 17.1835Z" fill="#358BB9"/>
</svg>
