<svg width="25" height="25" viewBox="0 0 25 25" fill="none" xmlns="http://www.w3.org/2000/svg">
<path fill-rule="evenodd" clip-rule="evenodd" d="M11.5341 3.50787C12.6124 2.42953 14.075 1.82373 15.6 1.82373H18.6C19.0142 1.82373 19.35 2.15952 19.35 2.57373V6.57373C19.35 6.98794 19.0142 7.32373 18.6 7.32373H15.6C15.5337 7.32373 15.4701 7.35007 15.4232 7.39695C15.3763 7.44384 15.35 7.50743 15.35 7.57373V9.82373H18.6C18.8309 9.82373 19.049 9.93014 19.1911 10.1122C19.3333 10.2942 19.3836 10.5316 19.3276 10.7556L18.3276 14.7556C18.2441 15.0895 17.9441 15.3237 17.6 15.3237H15.35V22.5737C15.35 22.9879 15.0142 23.3237 14.6 23.3237H10.6C10.1858 23.3237 9.84998 22.9879 9.84998 22.5737V15.3237H7.59998C7.18576 15.3237 6.84998 14.9879 6.84998 14.5737V10.5737C6.84998 10.1595 7.18576 9.82373 7.59998 9.82373H9.84998V7.57373C9.84998 6.04874 10.4558 4.5862 11.5341 3.50787ZM15.6 3.32373C14.4728 3.32373 13.3918 3.7715 12.5948 4.56853C11.7977 5.36556 11.35 6.44656 11.35 7.57373V10.5737C11.35 10.9879 11.0142 11.3237 10.6 11.3237H8.34998V13.8237H10.6C11.0142 13.8237 11.35 14.1595 11.35 14.5737V21.8237H13.85V14.5737C13.85 14.1595 14.1858 13.8237 14.6 13.8237H17.0144L17.6394 11.3237H14.6C14.1858 11.3237 13.85 10.9879 13.85 10.5737V7.57373C13.85 7.1096 14.0344 6.66448 14.3625 6.33629C14.6907 6.00811 15.1358 5.82373 15.6 5.82373H17.85V3.32373H15.6Z" fill="#73B6D2"/>
</svg>

