<svg width="24" height="25" viewBox="0 0 24 25" fill="none" xmlns="http://www.w3.org/2000/svg">
<path d="M12.001 9.57373C11.2054 9.57373 10.4423 9.8898 9.87968 10.4524C9.31707 11.015 9.001 11.7781 9.001 12.5737C9.001 13.3694 9.31707 14.1324 9.87968 14.6951C10.4423 15.2577 11.2054 15.5737 12.001 15.5737C12.7967 15.5737 13.5597 15.2577 14.1223 14.6951C14.6849 14.1324 15.001 13.3694 15.001 12.5737C15.001 11.7781 14.6849 11.015 14.1223 10.4524C13.5597 9.8898 12.7967 9.57373 12.001 9.57373ZM12.001 7.57373C13.3271 7.57373 14.5989 8.10052 15.5365 9.0382C16.4742 9.97588 17.001 11.2476 17.001 12.5737C17.001 13.8998 16.4742 15.1716 15.5365 16.1093C14.5989 17.0469 13.3271 17.5737 12.001 17.5737C10.6749 17.5737 9.40315 17.0469 8.46547 16.1093C7.52779 15.1716 7.001 13.8998 7.001 12.5737C7.001 11.2476 7.52779 9.97588 8.46547 9.0382C9.40315 8.10052 10.6749 7.57373 12.001 7.57373ZM18.501 7.32373C18.501 7.65525 18.3693 7.97319 18.1349 8.20761C17.9005 8.44203 17.5825 8.57373 17.251 8.57373C16.9195 8.57373 16.6015 8.44203 16.3671 8.20761C16.1327 7.97319 16.001 7.65525 16.001 7.32373C16.001 6.99221 16.1327 6.67427 16.3671 6.43985C16.6015 6.20543 16.9195 6.07373 17.251 6.07373C17.5825 6.07373 17.9005 6.20543 18.1349 6.43985C18.3693 6.67427 18.501 6.99221 18.501 7.32373ZM12.001 4.57373C9.527 4.57373 9.123 4.58073 7.972 4.63173C7.188 4.66873 6.662 4.77373 6.174 4.96373C5.76583 5.1141 5.39672 5.35437 5.094 5.66673C4.78127 5.96935 4.54066 6.33847 4.39 6.74673C4.2 7.23673 4.095 7.76173 4.059 8.54473C4.007 9.64873 4 10.0347 4 12.5737C4 15.0487 4.007 15.4517 4.058 16.6027C4.095 17.3857 4.2 17.9127 4.389 18.3997C4.559 18.8347 4.759 19.1477 5.091 19.4797C5.428 19.8157 5.741 20.0167 6.171 20.1827C6.665 20.3737 7.191 20.4797 7.971 20.5157C9.075 20.5677 9.461 20.5737 12 20.5737C14.475 20.5737 14.878 20.5667 16.029 20.5157C16.811 20.4787 17.337 20.3737 17.826 20.1847C18.2342 20.0344 18.6033 19.7941 18.906 19.4817C19.243 19.1457 19.444 18.8327 19.61 18.4017C19.8 17.9097 19.906 17.3837 19.942 16.6017C19.994 15.4987 20 15.1117 20 12.5737C20 10.0997 19.993 9.69573 19.942 8.54473C19.905 7.76273 19.799 7.23473 19.61 6.74673C19.4596 6.33856 19.2194 5.96945 18.907 5.66673C18.6044 5.354 18.2353 5.11339 17.827 4.96273C17.337 4.77273 16.811 4.66773 16.029 4.63173C14.926 4.57973 14.54 4.57373 12 4.57373M12 2.57373C14.717 2.57373 15.056 2.58373 16.123 2.63373C17.187 2.68373 17.913 2.85073 18.55 3.09873C19.21 3.35273 19.766 3.69673 20.322 4.25173C20.8307 4.75146 21.2242 5.3562 21.475 6.02373C21.722 6.66073 21.89 7.38673 21.94 8.45173C21.987 9.51773 22 9.85673 22 12.5737C22 15.2907 21.99 15.6297 21.94 16.6957C21.89 17.7617 21.722 18.4857 21.475 19.1237C21.2242 19.7913 20.8307 20.396 20.322 20.8957C19.8223 21.4044 19.2175 21.7979 18.55 22.0487C17.913 22.2957 17.187 22.4637 16.123 22.5137C15.056 22.5607 14.717 22.5737 12 22.5737C9.283 22.5737 8.944 22.5637 7.877 22.5137C6.813 22.4637 6.088 22.2957 5.45 22.0487C4.78247 21.7979 4.17773 21.4044 3.678 20.8957C3.16931 20.396 2.77582 19.7913 2.525 19.1237C2.277 18.4867 2.11 17.7607 2.06 16.6957C2.012 15.6297 2 15.2907 2 12.5737C2 9.85673 2.01 9.51773 2.06 8.45173C2.11 7.38573 2.277 6.66173 2.525 6.02373C2.77582 5.3562 3.16931 4.75146 3.678 4.25173C4.17773 3.74304 4.78247 3.34955 5.45 3.09873C6.087 2.85073 6.812 2.68373 7.877 2.63373C8.945 2.58673 9.284 2.57373 12.001 2.57373" fill="#358BB9"/>
</svg>
