<svg width="24" height="25" viewBox="0 0 24 25" fill="none" xmlns="http://www.w3.org/2000/svg">
<path fill-rule="evenodd" clip-rule="evenodd" d="M5 6.57373C4.73478 6.57373 4.48043 6.67909 4.29289 6.86662C4.21971 6.93981 4.15904 7.02317 4.11226 7.11339L12 12.3719L19.8877 7.11339C19.841 7.02317 19.7803 6.93981 19.7071 6.86662C19.5196 6.67909 19.2652 6.57373 19 6.57373H5ZM20 9.44225L12.5547 14.4058C12.2188 14.6297 11.7812 14.6297 11.4453 14.4058L4 9.44225V17.5737C4 17.8389 4.10536 18.0933 4.29289 18.2808C4.48043 18.4684 4.73478 18.5737 5 18.5737H19C19.2652 18.5737 19.5196 18.4684 19.7071 18.2808C19.8946 18.0933 20 17.8389 20 17.5737V9.44225ZM2.87868 5.45241C3.44129 4.8898 4.20435 4.57373 5 4.57373H19C19.7957 4.57373 20.5587 4.8898 21.1213 5.45241C21.6839 6.01502 22 6.77808 22 7.57373V17.5737C22 18.3694 21.6839 19.1324 21.1213 19.6951C20.5587 20.2577 19.7957 20.5737 19 20.5737H5C4.20435 20.5737 3.44129 20.2577 2.87868 19.6951C2.31607 19.1324 2 18.3694 2 17.5737V7.57373C2 6.77808 2.31607 6.01502 2.87868 5.45241Z" fill="#358BB9"/>
</svg>
