<svg width="25" height="25" viewBox="0 0 25 25" fill="none" xmlns="http://www.w3.org/2000/svg">
<g clip-path="url(#clip0_5223_263)">
<path d="M12.2 2.57373C17.7229 2.57373 22.2 7.05073 22.2 12.5737C22.2 18.0967 17.7229 22.5737 12.2 22.5737C10.4979 22.5761 8.82367 22.1423 7.33695 21.3137L7.03195 21.1357L3.99995 22.0277C3.83495 22.0764 3.66027 22.082 3.49247 22.0442C3.32466 22.0064 3.16929 21.9264 3.04109 21.8117C2.91288 21.697 2.81609 21.5515 2.75989 21.3889C2.70369 21.2263 2.68994 21.0521 2.71995 20.8827L2.74595 20.7737L3.63795 17.7417C2.695 16.183 2.19763 14.3955 2.19995 12.5737C2.19995 7.05073 6.67695 2.57373 12.2 2.57373ZM12.2 4.57373C10.7676 4.57347 9.36141 4.95779 8.12828 5.68655C6.89515 6.4153 5.88031 7.46177 5.18971 8.71667C4.49912 9.97157 4.15812 11.3889 4.20231 12.8206C4.2465 14.2522 4.67427 15.6458 5.44095 16.8557C5.63895 17.1677 5.72395 17.5517 5.65695 17.9327L5.61795 18.0957L5.17695 19.5967L6.67795 19.1557C7.11095 19.0277 7.56095 19.1057 7.91795 19.3327C8.96628 19.9965 10.1546 20.4074 11.3891 20.5328C12.6236 20.6582 13.8703 20.4947 15.0307 20.0553C16.1911 19.6159 17.2333 18.9126 18.0751 18.001C18.9169 17.0894 19.5351 15.9945 19.8808 14.8028C20.2266 13.6112 20.2904 12.3554 20.0672 11.1348C19.844 9.91426 19.34 8.76233 18.5949 7.77011C17.8499 6.77788 16.8843 5.97256 15.7744 5.41781C14.6645 4.86306 13.4408 4.57409 12.2 4.57373ZM9.30195 7.75773C9.41277 7.71027 9.53397 7.69224 9.6538 7.70538C9.77364 7.71852 9.88805 7.76239 9.98595 7.83273C10.49 8.20073 10.89 8.69473 11.234 9.17673L11.561 9.65073L11.714 9.87573C11.8026 10.0047 11.8461 10.1593 11.8378 10.3155C11.8294 10.4718 11.7697 10.6209 11.668 10.7397L11.593 10.8157L10.669 11.5017C10.625 11.5343 10.5941 11.5815 10.5818 11.6349C10.5695 11.6882 10.5767 11.7442 10.602 11.7927C10.812 12.1727 11.183 12.7397 11.609 13.1657C12.036 13.5917 12.629 13.9877 13.035 14.2207C13.123 14.2707 13.229 14.2547 13.301 14.1897L13.339 14.1447L13.94 13.2297C14.0501 13.0825 14.2131 12.9838 14.3946 12.9544C14.576 12.9249 14.7619 12.967 14.913 13.0717L15.4559 13.4507C15.9959 13.8357 16.515 14.2497 16.926 14.7747C17.002 14.8734 17.0503 14.9906 17.066 15.1141C17.0816 15.2377 17.064 15.3632 17.015 15.4777C16.619 16.4017 15.6159 17.1887 14.5739 17.1507L14.415 17.1407L14.224 17.1227L14.116 17.1087L13.878 17.0687C12.954 16.8947 11.473 16.3707 9.93795 14.8367C8.40395 13.3017 7.87995 11.8207 7.70595 10.8967L7.66595 10.6587L7.64095 10.4507L7.62795 10.2757L7.62395 10.2007C7.58595 9.15673 8.37695 8.15373 9.30195 7.75773Z" fill="#358BB9"/>
</g>
<defs>
<clipPath id="clip0_5223_263">
<rect width="24" height="24" fill="white" transform="translate(0.199951 0.57373)"/>
</clipPath>
</defs>
</svg>
